REM DIRINDEX 1\2,1\4,1\3\5,1\3\6,1\3\7
REM DIRNAME folder01,folder02,folder03,folder04,folder05,folder06,folder07
TITLE ""
FILE "CD2Track15.mp3" MP3
  TRACK 01 AUDIO
    TITLE "0:"
    INDEX 01 00:00:00
  TRACK 02 AUDIO
    TITLE "5:cjc082_1561"
    INDEX 01 00:00:29
  TRACK 03 AUDIO
    TITLE "0:"
    INDEX 01 00:02:00
  TRACK 04 AUDIO
    TITLE "6:cjc082_1562"
    INDEX 01 00:02:47
  TRACK 05 AUDIO
    TITLE "0:"
    INDEX 01 00:03:66
  TRACK 06 AUDIO
    TITLE "5:cjc082_1563"
    INDEX 01 00:04:36
  TRACK 07 AUDIO
    TITLE "0:"
    INDEX 01 00:05:56
  TRACK 08 AUDIO
    TITLE "6:cjc082_1564"
    INDEX 01 00:06:30
  TRACK 09 AUDIO
    TITLE "0:"
    INDEX 01 00:07:37
  TRACK 10 AUDIO
    TITLE "5:cjc082_1565"
    INDEX 01 00:08:11
  TRACK 11 AUDIO
    TITLE "0:"
    INDEX 01 00:09:22
  TRACK 12 AUDIO
    TITLE "6:cjc082_1566"
    INDEX 01 00:10:02
  TRACK 13 AUDIO
    TITLE "0:"
    INDEX 01 00:11:23
  TRACK 14 AUDIO
    TITLE "5:cjc082_1567"
    INDEX 01 00:11:72
  TRACK 15 AUDIO
    TITLE "0:"
    INDEX 01 00:13:04
  TRACK 16 AUDIO
    TITLE "6:cjc082_1568"
    INDEX 01 00:13:53
  TRACK 17 AUDIO
    TITLE "0:"
    INDEX 01 00:14:58
  TRACK 18 AUDIO
    TITLE "5:cjc082_1569"
    INDEX 01 00:15:30
  TRACK 19 AUDIO
    TITLE "0:"
    INDEX 01 00:16:71
  TRACK 20 AUDIO
    TITLE "6:cjc082_1570"
    INDEX 01 00:17:43
  TRACK 21 AUDIO
    TITLE "0:"
    INDEX 01 00:18:62
  TRACK 22 AUDIO
    TITLE "5:cjc082_1571"
    INDEX 01 00:19:32
  TRACK 23 AUDIO
    TITLE "0:"
    INDEX 01 00:20:55
  TRACK 24 AUDIO
    TITLE "6:cjc082_1572"
    INDEX 01 00:21:35
  TRACK 25 AUDIO
    TITLE "0:"
    INDEX 01 00:23:28
  TRACK 26 AUDIO
    TITLE "5:cjc082_1573"
    INDEX 01 00:24:02
  TRACK 27 AUDIO
    TITLE "0:"
    INDEX 01 00:25:23
  TRACK 28 AUDIO
    TITLE "6:cjc082_1574"
    INDEX 01 00:25:72
  TRACK 29 AUDIO
    TITLE "0:"
    INDEX 01 00:27:49
  TRACK 30 AUDIO
    TITLE "5:cjc082_1575"
    INDEX 01 00:28:17
  TRACK 31 AUDIO
    TITLE "0:"
    INDEX 01 00:29:42
  TRACK 32 AUDIO
    TITLE "6:cjc082_1576"
    INDEX 01 00:30:14
  TRACK 33 AUDIO
    TITLE "0:"
    INDEX 01 00:33:34
  TRACK 34 AUDIO
    TITLE "5:cjc082_1577"
    INDEX 01 00:34:12
  TRACK 35 AUDIO
    TITLE "0:"
    INDEX 01 00:35:41
  TRACK 36 AUDIO
    TITLE "6:cjc082_1578"
    INDEX 01 00:36:17
  TRACK 37 AUDIO
    TITLE "0:"
    INDEX 01 00:37:44
  TRACK 38 AUDIO
    TITLE "5:cjc082_1579"
    INDEX 01 00:38:16
  TRACK 39 AUDIO
    TITLE "0:"
    INDEX 01 00:39:51
  TRACK 40 AUDIO
    TITLE "6:cjc082_1580"
    INDEX 01 00:40:23
  TRACK 41 AUDIO
    TITLE "0:"
    INDEX 01 00:42:10
  TRACK 42 AUDIO
    TITLE "5:cjc082_1581"
    INDEX 01 00:42:55
  TRACK 43 AUDIO
    TITLE "0:"
    INDEX 01 00:44:16
  TRACK 44 AUDIO
    TITLE "6:cjc082_1582"
    INDEX 01 00:44:61
  TRACK 45 AUDIO
    TITLE "0:"
    INDEX 01 00:46:56
  TRACK 46 AUDIO
    TITLE "5:cjc082_1583"
    INDEX 01 00:47:30
  TRACK 47 AUDIO
    TITLE "0:"
    INDEX 01 00:49:23
  TRACK 48 AUDIO
    TITLE "6:cjc082_1584"
    INDEX 01 00:49:72
  TRACK 49 AUDIO
    TITLE "0:"
    INDEX 01 00:52:37
  TRACK 50 AUDIO
    TITLE "5:cjc082_1585"
    INDEX 01 00:53:08
  TRACK 51 AUDIO
    TITLE "0:"
    INDEX 01 00:55:20
  TRACK 52 AUDIO
    TITLE "6:cjc082_1586"
    INDEX 01 00:55:71
  TRACK 53 AUDIO
    TITLE "0:"
    INDEX 01 00:58:07
  TRACK 54 AUDIO
    TITLE "5:cjc082_1587"
    INDEX 01 00:58:56
  TRACK 55 AUDIO
    TITLE "0:"
    INDEX 01 01:00:23
  TRACK 56 AUDIO
    TITLE "6:cjc082_1588"
    INDEX 01 01:00:66
  TRACK 57 AUDIO
    TITLE "0:"
    INDEX 01 01:02:73
  TRACK 58 AUDIO
    TITLE "5:cjc082_1589"
    INDEX 01 01:03:41
  TRACK 59 AUDIO
    TITLE "0:"
    INDEX 01 01:04:47
  TRACK 60 AUDIO
    TITLE "6:cjc082_1590"
    INDEX 01 01:05:21
  TRACK 61 AUDIO
    TITLE "0:"
    INDEX 01 01:06:26
  TRACK 62 AUDIO
    TITLE "7:cjc082_1591"
    INDEX 01 01:07:64
  TRACK 63 AUDIO
    TITLE "0:"
    INDEX 01 01:18:35
